<?xml version="1.0" encoding="UTF-8" standalone="no"?>
<svg
   xmlns:dc="http://purl.org/dc/elements/1.1/"
   xmlns:cc="http://creativecommons.org/ns#"
   xmlns:rdf="http://www.w3.org/1999/02/22-rdf-syntax-ns#"
   xmlns:svg="http://www.w3.org/2000/svg"
   xmlns="http://www.w3.org/2000/svg"
   xmlns:sodipodi="http://sodipodi.sourceforge.net/DTD/sodipodi-0.dtd"
   xmlns:inkscape="http://www.inkscape.org/namespaces/inkscape"
   width="210mm"
   height="297mm"
   viewBox="0 0 210 297"
   version="1.1"
   id="svg8"
   inkscape:version="1.0.1 (3bc2e813f5, 2020-09-07)"
   sodipodi:docname="water-emoji.svg">
  <defs
     id="defs2" />
  <sodipodi:namedview
     id="base"
     pagecolor="#ffffff"
     bordercolor="#666666"
     borderopacity="1.0"
     inkscape:pageopacity="0.0"
     inkscape:pageshadow="2"
     inkscape:zoom="0.1767767"
     inkscape:cx="350.40906"
     inkscape:cy="74.114521"
     inkscape:document-units="mm"
     inkscape:current-layer="layer1"
     inkscape:document-rotation="0"
     showgrid="false"
     inkscape:window-width="1366"
     inkscape:window-height="728"
     inkscape:window-x="0"
     inkscape:window-y="0"
     inkscape:window-maximized="0" />
  <metadata
     id="metadata5">
    <rdf:RDF>
      <cc:Work
         rdf:about="">
        <dc:format>image/svg+xml</dc:format>
        <dc:type
           rdf:resource="http://purl.org/dc/dcmitype/StillImage" />
        <dc:title></dc:title>
      </cc:Work>
    </rdf:RDF>
  </metadata>
  <g
     inkscape:label="Warstwa 1"
     inkscape:groupmode="layer"
     id="layer1">
    <g
       id="g926">
      <path
         id="path833"
         style="opacity:1;fill:#2196f3;fill-opacity:0.99607843;stroke-width:3.71999"
         d="m 153.45833,203.72916 c 2.20224,25.16262 -20.98398,45.73512 -46.86904,45.73512 -25.88506,0 -45.838502,-20.49734 -46.869048,-45.73512 -2.080923,-50.96119 55.023918,-158.610512 53.008378,-132.732586 -1.1875,15.246505 3.36901,38.047756 13.44078,62.762866 10.07178,24.71512 25.65881,51.34409 27.28893,69.96972 z"
         sodipodi:nodetypes="ssssss" />
      <g
         id="g916"
         transform="matrix(3.5121001,0,0,3.5121001,-1015.3103,-430.75087)"
         style="opacity:0.61859;fill:#000000">
        <path
           id="path852"
           style="fill:#000000;stroke:none;stroke-width:0.121088;stroke-linecap:butt;stroke-linejoin:miter;stroke-miterlimit:4;stroke-dasharray:none;stroke-opacity:1"
           d="m 314.01498,169.57486 c -1.84082,0.88396 -3.0305,2.17439 -4.22216,3.98956 -0.12743,0.24899 0.25975,0.62381 0.35419,0.43459 0.85854,-2.17214 3.51072,-3.75897 4.09524,-3.95688 0.26642,-0.19268 0.1463,-0.57932 -0.22727,-0.46727 z"
           sodipodi:nodetypes="ccccc" />
        <g
           id="g908"
           style="fill:#000000">
          <path
             id="path836"
             style="fill:#000000;fill-opacity:0.996078;stroke-width:2.51774"
             d="m 1219.9277,675.88281 c -2.6876,5.22123 -8.0751,9.3834 -16.8808,9.51367 -9.0822,-0.25927 -13.6142,-3.30635 -16.2754,-8.59765 -0.1413,-0.28089 -0.2648,-0.55745 -0.3867,-0.83399 -0.3047,-0.34048 -1.8944,-0.45 -2.0957,0.64258 2.0173,8.03429 10.2946,15.09246 19.1149,15.05915 8.6778,0.0318 16.2678,-7.43664 18.7679,-15.05915 -0.01,4e-5 -0.02,4e-5 -0.029,0 0.1566,-0.56268 -1.4473,-1.23835 -2.2149,-0.72461 z"
             transform="scale(0.26458333)"
             sodipodi:nodetypes="ccsccccccc" />
          <path
             id="path846"
             style="fill:#000000;fill-opacity:0.996078;stroke-width:0.329086"
             d="m 322.6019,174.07668 c -0.23668,-0.0508 -0.47149,-0.0695 -0.69343,-0.0553 -0.94678,0.0511 -1.9782,0.85792 -2.18276,2.01211 0.006,0.0821 0.3212,0.0947 0.35234,0.0242 0.6878,-0.72141 0.95292,-1.27854 1.9121,-1.37139 0.9537,0.12271 2.18368,0.67867 2.58924,1.5741 0.033,0.0683 0.32602,0.0399 0.31315,-0.0164 -0.28356,-1.19741 -1.30376,-1.95698 -2.29063,-2.16723 z"
             sodipodi:nodetypes="ccccccccc" />
          <ellipse
             style="fill:#000000;fill-opacity:0.996078;stroke-width:1.26186"
             id="path850"
             cx="314.29541"
             cy="175.03238"
             rx="1.731876"
             ry="2.4298916" />
          <path
             id="path854"
             style="fill:#000000;stroke:none;stroke-width:0.124771px;stroke-linecap:butt;stroke-linejoin:miter;stroke-opacity:1"
             d="m 325.53974,172.10017 c -1.0973,-0.65801 -3.29107,-1.15044 -4.1035,-0.90725 -0.0933,0.19907 -0.13694,0.578 -0.0521,0.77129 0.65268,-0.74094 4.52007,-0.0745 4.48454,1.58566 0.0765,0.0608 0.1872,0.0614 0.24617,-0.0674 0.15999,-0.83078 -0.23002,-1.17147 -0.57512,-1.38242 z"
             sodipodi:nodetypes="scccccs" />
        </g>
      </g>
    </g>
  </g>
</svg>
